<svg width="33" height="32" viewBox="0 0 33 32" fill="none" xmlns="http://www.w3.org/2000/svg">
<rect x="0.398438" width="32" height="32" rx="8" fill="#1976D2"/>
<path d="M7.39844 9.51074H12.3984V22.5011C12.3984 23.8819 11.2791 25.0011 9.89844 25.0011C8.51773 25.0011 7.39844 23.8819 7.39844 22.5011V9.51074Z" fill="white"/>
<path opacity="0.15" fill-rule="evenodd" clip-rule="evenodd" d="M12.3984 19.001L6.39844 8.32404V7.00098H12.3984V19.001Z" fill="#1976D2"/>
<path d="M20.3984 9.50098C20.3984 8.12026 21.5177 7.00098 22.8984 7.00098C24.2791 7.00098 25.3984 8.12026 25.3984 9.50098V13.501C25.3984 14.8817 24.2791 16.001 22.8984 16.001C21.5177 16.001 20.3984 14.8817 20.3984 13.501V9.50098Z" fill="white"/>
<rect x="6.35938" y="9.50879" width="5.00154" height="23.3918" rx="2.50077" transform="rotate(-45 6.35938 9.50879)" fill="white"/>
</svg>
