<svg width="32" height="32" viewBox="0 0 32 32" fill="none" xmlns="http://www.w3.org/2000/svg">
<rect width="32" height="32" rx="8" fill="#13B3F8"/>
<path d="M7 16C7 11.0294 11.0294 7 16 7H25V16C25 20.9706 20.9706 25 16 25H7H11.5V16C11.5 13.5147 13.5147 11.5 16 11.5H20.5V16C20.5 18.4853 18.4853 20.5 16 20.5V18.25C17.2426 18.25 18.25 17.2426 18.25 16V13.75H16C14.7574 13.75 13.75 14.7574 13.75 16V22.75H16C19.7279 22.75 22.75 19.7279 22.75 16V9.25H16C12.2721 9.25 9.25 12.2721 9.25 16V20.5H7V16Z" fill="white"/>
</svg>
