<svg width="33" height="32" viewBox="0 0 33 32" fill="none" xmlns="http://www.w3.org/2000/svg">
<rect x="0.601562" width="32" height="32" rx="8" fill="#CF0036"/>
<path fill-rule="evenodd" clip-rule="evenodd" d="M16.6016 6C17.2865 6 17.9553 6.06886 18.6016 6.20004V12.5351C18.0132 12.1948 17.3301 12 16.6016 12C14.3924 12 12.6016 13.7909 12.6016 16V25.1679C9.06975 23.6248 6.60156 20.1006 6.60156 16C6.60156 10.4772 11.0787 6 16.6016 6ZM14.6016 25.8C15.2478 25.9311 15.9166 26 16.6016 26C22.1244 26 26.6016 21.5228 26.6016 16C26.6016 11.8994 24.1334 8.3752 20.6016 6.83209V16C20.6016 18.2091 18.8107 20 16.6016 20C15.873 20 15.1899 19.8052 14.6016 19.4649V25.8Z" fill="white"/>
</svg>
