<svg width="32" height="32" viewBox="0 0 32 32" fill="none" xmlns="http://www.w3.org/2000/svg">
<g id="Icon/32/product/liteshop">
<rect width="32" height="32" rx="8" fill="#5B7FFF"/>
<path id="&#208;&#190;&#208;&#189; copy" fill-rule="evenodd" clip-rule="evenodd" d="M24.7105 19.1336C24.4722 19.4215 24.2147 19.6929 23.9398 19.9459C23.67 20.2218 23.3419 20.4336 22.9794 20.566C22.617 20.6983 22.2296 20.7477 21.8455 20.7106C20.3454 20.6948 19.2099 19.2901 19.2099 19.2901L16.0097 15.1007C16.0097 15.1007 14.4449 17.1883 13.6624 18.3283C12.9153 19.4218 11.8858 18.9665 11.2681 18.0836L15.1802 12.3366C15.2647 12.1906 15.3861 12.0695 15.5322 11.9852C15.6783 11.901 15.844 11.8567 16.0126 11.8567C16.1813 11.8567 16.347 11.901 16.4931 11.9852C16.6392 12.0695 16.7606 12.1906 16.8451 12.3366C16.8451 12.3366 20.7395 17.576 20.9631 17.866C21.0536 18.0268 21.1894 18.1576 21.3536 18.2419C21.5178 18.3262 21.7032 18.3603 21.8867 18.3401C22.3177 18.2664 22.7024 18.0259 22.9573 17.6707C23.3953 17.2311 23.6413 16.6359 23.6413 16.0154C23.6413 15.3949 23.3953 14.7997 22.9573 14.3601L17.6627 9.06603C17.2309 8.62653 16.6435 8.37446 16.0274 8.36427C15.717 8.36023 15.4091 8.41891 15.122 8.53677C14.8349 8.65463 14.5745 8.82924 14.3566 9.05014L9.0503 14.3519C8.61228 14.792 8.36636 15.3877 8.36636 16.0086C8.36636 16.6295 8.61228 17.2252 9.0503 17.6654L14.3566 22.9665C14.5688 23.187 14.8239 23.3619 15.1062 23.4803C15.3884 23.5988 15.6918 23.6583 15.9979 23.6553C17.0333 23.6383 17.5709 23.093 18.4887 22.1594C20.0182 20.603 21.3477 22.49 21.3477 22.49L21.3536 22.4971L19.1452 24.7036C18.3118 25.5338 17.1832 26 16.0068 26C14.8303 26 13.7017 25.5338 12.8683 24.7036L7.29714 19.1336C6.46655 18.3024 6 17.1754 6 16.0004C6 14.8254 6.46655 13.6984 7.29714 12.8672L12.8683 7.29722C13.2806 6.88454 13.7704 6.55748 14.3097 6.33485C14.8489 6.11223 15.4269 5.99843 16.0103 6.00002C16.5937 6.0016 17.171 6.11854 17.7091 6.34409C18.2471 6.56965 18.7351 6.89936 19.1452 7.31427L24.7105 12.8795C25.5364 13.7107 26 14.8348 26 16.0066C26 17.1783 25.5364 18.3024 24.7105 19.1336Z" fill="white"/>
</g>
</svg>
