<svg width="33" height="32" viewBox="0 0 33 32" fill="none" xmlns="http://www.w3.org/2000/svg">
<g id="Icon/32/product/maximum">
<rect x="0.203125" width="32" height="32" rx="8" fill="#365EDC"/>
<path id="&#208;&#158;&#208;&#189; copy" fill-rule="evenodd" clip-rule="evenodd" d="M16.195 19.6285L15.1159 19.0784C15.1159 19.0784 13.5873 18.2859 12.5862 17.6494C11.8969 17.2139 11.3993 16.8695 11.3993 15.8617V14.407L16.195 17.0165L25.1809 12.0974H25.1929V14.7171V15.9985C25.1929 18.3858 24.2452 20.6754 22.5583 22.3635C20.8714 24.0516 18.5836 25 16.198 25C13.8124 25 11.5245 24.0516 9.83768 22.3635C8.15082 20.6754 7.20312 18.3858 7.20312 15.9985V9.61977V7H7.21513L16.195 11.9192L25.1809 7H25.1929V8.44637C25.2313 8.78762 25.161 9.13232 24.992 9.4312C24.823 9.73007 24.5638 9.96781 24.2517 10.1105C22.0996 11.3103 17.28 13.9822 17.28 13.9822L16.195 14.5324L15.1159 13.9828L9.60096 10.9419V15.9985C9.59563 17.7486 10.2852 19.4292 11.5181 20.6705C12.751 21.9118 14.4261 22.6122 16.1749 22.6175C17.9238 22.6228 19.6031 21.9327 20.8435 20.6989C22.0839 19.4652 22.7837 17.7888 22.789 16.0387L17.28 19.0778L16.195 19.6285Z" fill="white"/>
</g>
</svg>
